<svg width="24" height="24" viewBox="0 0 24 24" fill="none" xmlns="http://www.w3.org/2000/svg">
  <path d="M11.9 2C8.6 2 8.7 3.6 8.7 3.6V5.9H12V6H7.4C7.4 6 5 5.9 5 8.7C5 11.5 7.1 11.4 7.1 11.4H8.5V10.5C8.5 8.1 10.8 8.3 10.8 8.3H14.1V11.6C14.1 11.6 14 13.9 11.8 13.9H7.5V16.2C7.5 16.2 7.6 17.8 10.9 17.8H14.2C17.5 17.8 17.4 16.2 17.4 16.2V13.9H14.1C11.9 13.9 12 11.6 12 11.6V8.3H15.3C18.6 8.3 18.5 6.7 18.5 6.7V4.4C18.5 4.4 18.4 2 15.1 2H11.9Z" fill="#3776AB"/>
  <path d="M15.1 3.2C17.8 3.2 17.7 4.5 17.7 4.5V6.7C17.7 6.7 17.8 8.1 15.3 8.1H12V11.4H15.3C18.6 11.4 18.5 13 18.5 13V15.3C18.5 15.3 18.6 16.6 15.9 16.6H12.6C9.3 16.6 9.4 15 9.4 15V12.7H7.1C4.4 12.7 4.5 11.4 4.5 11.4V9.1C4.5 9.1 4.4 7.7 7.1 7.7H10.8V4.4C10.8 4.4 10.7 3.2 13.4 3.2H15.1Z" fill="#FFD43B"/>
  <circle cx="10.2" cy="5.4" r="0.9" fill="white"/>
  <circle cx="15.8" cy="15.4" r="0.9" fill="white"/>
</svg>
